<?xml version="1.0" standalone="no"?><!-- Generator: Gravit.io --><svg xmlns="http://www.w3.org/2000/svg" xmlns:xlink="http://www.w3.org/1999/xlink" style="isolation:isolate" viewBox="0 0 640 512" width="640" height="512"><defs><clipPath id="_clipPath_Ex12G5bGF8i6Oqu8ABbgPGz3BhftqRXS"><rect width="640" height="512"/></clipPath></defs><g clip-path="url(#_clipPath_Ex12G5bGF8i6Oqu8ABbgPGz3BhftqRXS)"><path d=" M 176 256 C 220.11 256 256 220.11 256 176 C 256 131.89 220.11 96 176 96 C 131.89 96 96 131.89 96 176 C 96 220.11 131.89 256 176 256 Z  M 528 128 L 304 128 C 295.16 128 288 135.16 288 144 L 288 288 L 64 288 L 64 80 C 64 71.16 56.84 64 48 64 L 16 64 C 7.16 64 0 71.16 0 80 L 0 432 C 0 440.84 7.16 448 16 448 L 48 448 C 56.84 448 64 440.84 64 432 L 64 384 L 576 384 L 576 432 C 576 440.84 583.16 448 592 448 L 624 448 C 632.84 448 640 440.84 640 432 L 640 240 C 640 178.14 589.86 128 528 128 Z " fill="rgb(255,255,255)"/></g></svg>