<?xml version="1.0" standalone="no"?><!-- Generator: Gravit.io --><svg xmlns="http://www.w3.org/2000/svg" xmlns:xlink="http://www.w3.org/1999/xlink" style="isolation:isolate" viewBox="0 0 640 512" width="640" height="512"><defs><clipPath id="_clipPath_u2MIvolaIFJV6KtUXTRWIEC1ZQzwPaAG"><rect width="640" height="512"/></clipPath></defs><g clip-path="url(#_clipPath_u2MIvolaIFJV6KtUXTRWIEC1ZQzwPaAG)"><path d=" M 192 384 L 384 384 C 437 384 480 341 480 288 L 512 288 C 582.6 288 640 230.6 640 160 C 640 89.4 582.6 32 512 32 L 120 32 C 106.7 32 96 42.7 96 56 L 96 288 C 96 341 139 384 192 384 Z  M 512 96 C 547.3 96 576 124.7 576 160 C 576 195.3 547.3 224 512 224 L 480 224 L 480 96 L 512 96 L 512 96 Z  M 559.7 480 L 48.3 480 C 0.7 480 -12.7 416 12.3 416 L 595.6 416 C 620.6 416 607.4 480 559.7 480 L 559.7 480 Z " fill="rgb(255,255,255)"/></g></svg>