<?xml version="1.0" encoding="UTF-8" standalone="no"?>
<!DOCTYPE svg PUBLIC "-//W3C//DTD SVG 1.1//EN" "http://www.w3.org/Graphics/SVG/1.1/DTD/svg11.dtd">
<svg version="1.1" xmlns="http://www.w3.org/2000/svg" xmlns:xlink="http://www.w3.org/1999/xlink" preserveAspectRatio="xMidYMid meet" viewBox="0 0 640 640" width="640" height="640"><defs><path d="M607.69 35.71L609.05 35.86L610.4 36.06L611.74 36.32L613.07 36.62L614.39 36.98L615.69 37.39L616.98 37.84L618.25 38.35L619.5 38.9L620.73 39.51L621.94 40.16L623.12 40.85L624.28 41.6L625.41 42.39L626.52 43.23L627.59 44.12L628.64 45.05L629.65 46.03L630.63 47.05L631.57 48.12L632.47 49.23L633.33 50.38L634.15 51.58L634.93 52.82L635.66 54.09L636.33 55.38L636.95 56.69L637.5 58.01L638 59.34L638.44 60.68L638.83 62.04L639.16 63.39L639.44 64.76L639.66 66.13L639.83 67.51L639.94 68.88L640 70.26L640 71.63L639.96 73L639.86 74.36L639.71 75.72L639.5 77.07L639.25 78.42L638.94 79.75L638.59 81.06L638.18 82.37L637.73 83.65L637.22 84.93L636.67 86.18L636.06 87.41L635.41 88.62L634.71 89.8L633.97 90.96L633.18 92.1L632.34 93.2L631.45 94.28L630.52 95.32L629.54 96.33L628.52 97.31L627.45 98.25L626.34 99.15L625.19 100.01L623.99 100.83L622.74 101.61L508.98 169.87L514.87 171.84L520.66 173.87L526.35 175.95L531.92 178.09L537.38 180.29L542.72 182.54L547.95 184.84L553.06 187.2L558.05 189.61L562.91 192.07L567.64 194.57L572.25 197.13L576.73 199.73L581.08 202.38L585.28 205.08L589.36 207.82L593.29 210.6L597.08 213.43L600.73 216.3L604.23 219.21L607.58 222.16L610.78 225.14L613.83 228.17L616.72 231.23L619.45 234.33L622.03 237.46L624.44 240.63L626.68 243.83L628.76 247.06L630.68 250.32L632.42 253.62L633.98 256.94L635.37 260.29L636.59 263.67L637.62 267.07L638.47 270.5L639.14 273.96L639.61 277.43L639.9 280.93L640 284.46L640 463.16L639.95 465.69L639.8 468.21L639.55 470.72L639.21 473.22L638.77 475.71L638.23 478.18L637.6 480.65L636.87 483.1L636.05 485.53L635.13 487.95L634.13 490.36L633.03 492.76L631.85 495.14L630.57 497.5L629.21 499.85L627.76 502.18L626.22 504.5L624.6 506.8L622.89 509.08L621.1 511.34L619.22 513.59L617.27 515.82L615.23 518.03L613.11 520.22L610.91 522.4L608.63 524.55L606.27 526.68L603.83 528.8L601.32 530.89L598.74 532.96L596.07 535.01L593.34 537.04L590.53 539.05L587.65 541.04L584.7 543L581.67 544.94L578.58 546.85L575.42 548.74L572.19 550.61L568.89 552.46L568.89 445.38L568.86 443.92L568.77 442.47L568.62 441.04L568.42 439.63L568.16 438.24L567.85 436.86L567.49 435.5L567.07 434.17L566.6 432.86L566.08 431.57L565.52 430.31L564.9 429.07L564.25 427.86L563.54 426.68L562.8 425.53L562.01 424.41L561.17 423.33L560.3 422.27L559.39 421.25L558.44 420.27L557.46 419.32L556.44 418.41L555.38 417.54L554.3 416.71L553.18 415.92L552.03 415.17L550.85 414.47L549.64 413.81L548.4 413.19L547.14 412.63L545.85 412.11L544.54 411.64L543.21 411.23L541.85 410.86L540.48 410.55L539.08 410.29L537.67 410.09L536.24 409.94L534.79 409.85L533.33 409.82L531.87 409.85L530.43 409.94L529 410.09L527.59 410.29L526.19 410.55L524.82 410.86L523.46 411.23L522.13 411.64L520.82 412.11L519.53 412.63L518.27 413.19L517.03 413.81L515.82 414.47L514.64 415.17L513.49 415.92L512.37 416.71L511.28 417.54L510.23 418.41L509.21 419.32L508.22 420.27L507.27 421.25L506.36 422.27L505.49 423.33L504.66 424.41L503.87 425.53L503.12 426.68L502.42 427.86L501.76 429.07L501.15 430.31L500.58 431.57L500.07 432.86L499.6 434.17L499.18 435.5L498.82 436.86L498.5 438.24L498.25 439.63L498.04 441.04L497.9 442.47L497.81 443.92L497.78 445.38L497.78 581.39L494.65 582.31L491.49 583.21L488.31 584.1L485.11 584.97L481.88 585.82L478.62 586.66L475.34 587.48L472.04 588.29L468.72 589.08L465.37 589.85L462 590.6L458.6 591.34L455.18 592.06L451.75 592.76L448.29 593.44L444.8 594.11L441.3 594.76L437.78 595.39L434.23 596L430.67 596.59L427.08 597.17L423.48 597.72L419.85 598.26L416.21 598.78L412.55 599.28L408.87 599.76L405.17 600.23L401.45 600.67L397.72 601.09L393.97 601.5L390.2 601.88L386.41 602.25L382.61 602.59L378.79 602.92L374.96 603.22L371.11 603.51L367.24 603.77L363.36 604.02L359.47 604.24L355.56 604.44L355.56 480.93L355.53 479.47L355.44 478.03L355.29 476.6L355.09 475.19L354.83 473.79L354.52 472.42L354.15 471.06L353.74 469.73L353.27 468.42L352.75 467.13L352.18 465.87L351.57 464.63L350.91 463.42L350.21 462.24L349.46 461.09L348.67 459.97L347.84 458.88L346.97 457.83L346.06 456.81L345.11 455.82L344.13 454.87L343.11 453.96L342.05 453.09L340.96 452.26L339.84 451.47L338.69 450.72L337.51 450.02L336.3 449.36L335.07 448.75L333.81 448.18L332.52 447.67L331.21 447.2L329.87 446.78L328.52 446.42L327.14 446.1L325.75 445.85L324.33 445.64L322.91 445.5L321.46 445.41L320 445.38L318.54 445.41L317.09 445.5L315.67 445.64L314.25 445.85L312.86 446.1L311.48 446.42L310.13 446.78L308.79 447.2L307.48 447.67L306.19 448.18L304.93 448.75L303.7 449.36L302.49 450.02L301.31 450.72L300.16 451.47L299.04 452.26L297.95 453.09L296.89 453.96L295.87 454.87L294.89 455.82L293.94 456.81L293.03 457.83L292.16 458.88L291.33 459.97L290.54 461.09L289.79 462.24L289.09 463.42L288.43 464.63L287.82 465.87L287.25 467.13L286.73 468.42L286.26 469.73L285.85 471.06L285.48 472.42L285.17 473.79L284.91 475.19L284.71 476.6L284.56 478.03L284.47 479.47L284.44 480.93L284.44 604.43L280.53 604.23L276.64 604.01L272.76 603.76L268.89 603.5L265.04 603.21L261.21 602.91L257.39 602.58L253.59 602.24L249.8 601.87L246.03 601.49L242.28 601.08L238.55 600.66L234.83 600.22L231.13 599.75L227.45 599.27L223.79 598.77L220.15 598.25L216.52 597.71L212.92 597.16L209.33 596.58L205.77 595.99L202.22 595.37L198.7 594.74L195.2 594.1L191.71 593.43L188.25 592.75L184.82 592.05L181.4 591.33L178 590.59L174.63 589.84L171.28 589.07L167.96 588.28L164.66 587.47L161.38 586.65L158.12 585.81L154.89 584.96L151.69 584.09L148.51 583.2L145.35 582.3L142.22 581.38L142.22 445.37L142.19 443.91L142.1 442.46L141.96 441.03L141.75 439.62L141.5 438.22L141.18 436.85L140.82 435.49L140.4 434.16L139.93 432.85L139.42 431.56L138.85 430.3L138.24 429.06L137.58 427.85L136.88 426.67L136.13 425.52L135.34 424.4L134.51 423.32L133.64 422.26L132.73 421.24L131.78 420.26L130.79 419.31L129.77 418.4L128.72 417.53L127.63 416.69L126.51 415.9L125.36 415.16L124.18 414.45L122.97 413.8L121.73 413.18L120.47 412.62L119.18 412.1L117.87 411.63L116.54 411.21L115.18 410.85L113.81 410.54L112.41 410.28L111 410.08L109.57 409.93L108.13 409.84L106.67 409.81L105.21 409.84L103.76 409.93L102.33 410.08L100.92 410.28L99.52 410.54L98.15 410.85L96.79 411.21L95.46 411.63L94.15 412.1L92.86 412.62L91.6 413.18L90.36 413.8L89.15 414.45L87.97 415.16L86.82 415.9L85.7 416.69L84.62 417.53L83.56 418.4L82.54 419.31L81.56 420.26L80.61 421.24L79.7 422.26L78.83 423.32L77.99 424.4L77.2 425.52L76.46 426.67L75.75 427.85L75.1 429.06L74.48 430.3L73.92 431.56L73.4 432.85L72.93 434.16L72.51 435.49L72.15 436.85L71.84 438.22L71.58 439.62L71.38 441.03L71.23 442.46L71.14 443.91L71.11 445.37L71.11 552.44L67.81 550.6L64.58 548.73L61.42 546.84L58.33 544.93L55.3 542.99L52.35 541.02L49.47 539.04L46.66 537.03L43.93 535L41.26 532.95L38.68 530.88L36.17 528.79L33.73 526.67L31.37 524.54L29.09 522.39L26.89 520.21L24.77 518.02L22.73 515.81L20.78 513.58L18.9 511.33L17.11 509.07L15.4 506.78L13.78 504.48L12.24 502.17L10.79 499.84L9.43 497.49L8.15 495.12L6.97 492.74L5.87 490.35L4.87 487.94L3.95 485.52L3.13 483.08L2.4 480.63L1.77 478.17L1.23 475.7L0.79 473.21L0.45 470.71L0.2 468.2L0.05 465.68L0 463.14L0 284.44L0.27 278.58L1.06 272.78L2.37 267.04L4.19 261.38L6.5 255.78L9.3 250.27L12.57 244.84L16.31 239.49L20.51 234.24L25.15 229.09L30.22 224.03L35.72 219.09L41.63 214.25L47.94 209.53L54.65 204.93L61.74 200.45L69.2 196.1L77.03 191.89L85.21 187.81L93.73 183.88L102.58 180.09L111.75 176.46L121.23 172.98L131.01 169.66L141.08 166.51L151.44 163.53L162.06 160.72L172.94 158.1L184.07 155.65L195.44 153.4L207.04 151.34L218.85 149.47L230.88 147.81L243.1 146.36L255.51 145.11L268.09 144.08L280.85 143.28L293.75 142.69L306.81 142.34L320 142.22L322.2 142.23L324.39 142.24L326.59 142.26L328.79 142.28L330.98 142.31L333.18 142.35L335.37 142.4L337.57 142.45L339.76 142.51L341.96 142.57L344.15 142.65L346.35 142.73L348.54 142.81L350.73 142.91L352.93 143.01L355.12 143.11L357.31 143.23L359.5 143.35L361.7 143.48L363.89 143.61L366.08 143.75L368.27 143.9L370.46 144.06L372.65 144.22L374.84 144.39L377.02 144.57L379.21 144.75L381.4 144.94L383.59 145.14L385.77 145.34L387.96 145.55L390.14 145.77L392.33 145.99L394.51 146.22L396.7 146.46L398.88 146.71L401.06 146.96L403.24 147.22L405.42 147.48L407.6 147.76L586.14 40.63L587.42 39.9L588.71 39.23L590.01 38.62L591.33 38.06L592.67 37.56L594.01 37.12L595.36 36.73L596.72 36.4L598.09 36.13L599.46 35.91L600.83 35.74L602.21 35.63L603.58 35.57L604.95 35.56L606.32 35.61L607.69 35.71ZM298.13 195.85L287.37 196.21L276.74 196.72L266.26 197.36L255.92 198.14L245.73 199.05L235.71 200.09L225.87 201.25L216.2 202.54L206.73 203.95L197.45 205.48L188.38 207.12L179.53 208.87L170.9 210.74L162.51 212.71L154.36 214.78L146.46 216.95L138.81 219.23L131.44 221.59L124.34 224.05L117.52 226.6L111 229.23L104.78 231.95L98.88 234.75L93.29 237.62L88.02 240.57L83.1 243.6L78.52 246.69L74.29 249.85L70.42 253.07L66.93 256.35L63.81 259.69L61.08 263.08L58.75 266.53L56.82 270.03L55.31 273.57L54.22 277.15L53.56 280.78L53.33 284.44L53.56 288.11L54.22 291.73L55.31 295.32L56.82 298.86L58.75 302.36L61.08 305.8L63.81 309.2L66.93 312.54L70.42 315.82L74.29 319.04L78.52 322.2L83.1 325.29L88.02 328.32L93.29 331.27L98.88 334.14L104.78 336.94L111 339.66L117.52 342.29L124.34 344.84L131.44 347.3L138.81 349.66L146.46 351.94L154.36 354.11L162.51 356.18L170.9 358.15L179.53 360.01L188.38 361.77L197.45 363.41L206.73 364.94L216.2 366.35L225.87 367.64L235.71 368.8L245.73 369.84L255.92 370.75L266.26 371.53L276.74 372.17L287.37 372.67L298.13 373.04L309.01 373.26L320 373.33L330.99 373.26L341.87 373.04L352.63 372.67L363.25 372.17L373.74 371.53L384.08 370.75L394.26 369.84L404.28 368.8L414.13 367.64L423.79 366.35L433.27 364.94L442.54 363.41L451.61 361.77L460.46 360.02L469.09 358.16L477.49 356.19L485.64 354.11L493.54 351.94L501.18 349.67L508.56 347.3L515.66 344.84L522.47 342.3L528.99 339.66L535.21 336.95L541.12 334.15L546.71 331.27L551.97 328.32L556.9 325.3L561.48 322.21L565.71 319.05L569.58 315.83L573.07 312.55L576.19 309.21L578.92 305.81L581.25 302.37L583.18 298.87L584.69 295.33L585.78 291.75L586.44 288.12L586.67 284.46L586.56 281.94L586.25 279.44L585.73 276.97L585.01 274.51L584.1 272.07L582.98 269.65L581.67 267.25L580.18 264.88L578.49 262.53L576.62 260.2L574.56 257.9L572.33 255.63L569.92 253.39L567.33 251.17L564.57 248.98L561.65 246.82L558.55 244.7L555.3 242.6L551.88 240.54L548.31 238.51L544.58 236.52L540.7 234.56L536.67 232.64L532.49 230.76L528.17 228.91L523.71 227.1L519.11 225.34L514.38 223.61L509.51 221.93L504.51 220.29L499.38 218.7L494.13 217.15L488.76 215.64L483.27 214.18L477.66 212.77L471.94 211.41L466.11 210.1L460.17 208.84L454.12 207.63L447.98 206.47L267.19 314.93L265.98 315.63L264.74 316.27L263.49 316.86L262.22 317.4L260.93 317.89L259.63 318.33L258.32 318.72L256.99 319.05L255.65 319.34L254.31 319.57L252.96 319.75L251.6 319.88L250.24 319.96L248.88 319.99L247.52 319.96L246.16 319.89L244.81 319.76L243.46 319.58L242.11 319.36L240.78 319.08L239.45 318.75L238.14 318.36L236.84 317.93L235.55 317.45L234.29 316.91L233.04 316.32L231.81 315.69L230.6 315L229.41 314.26L228.25 313.47L227.12 312.62L226.02 311.73L224.94 310.79L223.9 309.79L222.89 308.74L221.92 307.65L220.98 306.5L220.08 305.3L219.22 304.05L218.4 302.74L217.67 301.47L217 300.18L216.39 298.88L215.83 297.56L215.33 296.23L214.89 294.88L214.5 293.53L214.17 292.17L213.9 290.81L213.67 289.44L213.51 288.06L213.4 286.69L213.34 285.31L213.33 283.94L213.38 282.57L213.48 281.2L213.63 279.84L213.83 278.49L214.08 277.15L214.39 275.82L214.75 274.5L215.15 273.2L215.61 271.91L216.11 270.64L216.67 269.39L217.27 268.16L217.92 266.95L218.62 265.76L219.36 264.6L220.16 263.47L221 262.37L221.88 261.29L222.82 260.25L223.79 259.24L224.81 258.26L225.88 257.32L226.99 256.42L228.15 255.56L229.35 254.73L230.59 253.96L327.71 195.69L327.52 195.69L327.32 195.68L327.13 195.68L326.94 195.68L326.75 195.68L326.55 195.67L326.36 195.67L326.17 195.67L325.98 195.66L325.78 195.66L325.59 195.65L325.4 195.65L325.21 195.65L325.02 195.64L324.82 195.64L324.63 195.63L324.44 195.63L324.25 195.62L324.06 195.62L323.86 195.61L323.67 195.61L323.48 195.6L323.29 195.6L323.1 195.6L322.9 195.59L322.71 195.59L322.52 195.58L322.32 195.58L322.13 195.58L321.94 195.57L321.75 195.57L321.55 195.57L321.36 195.56L321.17 195.56L320.97 195.56L320.78 195.56L320.58 195.56L320.39 195.56L320.19 195.56L320 195.56L309.01 195.63L298.13 195.85Z" id="c40R0UhbHx"></path></defs><g><g><g><use xlink:href="#c40R0UhbHx" opacity="1" fill="#ffffff" fill-opacity="1"></use><g><use xlink:href="#c40R0UhbHx" opacity="1" fill-opacity="0" stroke="#000000" stroke-width="1" stroke-opacity="0"></use></g></g></g></g></svg>