<?xml version="1.0" encoding="UTF-8" standalone="no"?>
<!DOCTYPE svg PUBLIC "-//W3C//DTD SVG 1.1//EN" "http://www.w3.org/Graphics/SVG/1.1/DTD/svg11.dtd">
<svg version="1.1" xmlns="http://www.w3.org/2000/svg" xmlns:xlink="http://www.w3.org/1999/xlink" preserveAspectRatio="xMidYMid meet" viewBox="0 0 640 640" width="640" height="640"><defs><path d="M322.88 0.16L324.31 0.36L325.73 0.63L327.13 0.99L328.51 1.42L329.87 1.94L331.2 2.53L332.5 3.2L333.76 3.95L334.98 4.78L336.16 5.69L337.3 6.68L338.38 7.75L339.4 8.89L340.36 10.12L341.26 11.42L342.1 12.8L342.86 14.27L343.54 15.81L375.44 93.8L375.85 94.75L376.3 95.67L376.79 96.56L377.31 97.42L377.87 98.25L378.46 99.05L379.08 99.82L379.72 100.55L380.4 101.25L381.1 101.92L381.83 102.55L382.58 103.15L383.36 103.72L384.15 104.25L384.97 104.75L385.81 105.21L386.66 105.63L387.53 106.02L388.41 106.37L389.31 106.68L390.22 106.96L391.14 107.19L392.07 107.39L393.01 107.55L393.96 107.67L394.91 107.75L395.87 107.79L396.83 107.78L397.79 107.74L398.75 107.65L399.71 107.53L400.67 107.36L401.63 107.14L402.58 106.89L403.52 106.59L404.46 106.24L405.39 105.85L406.31 105.42L407.21 104.94L408.11 104.41L479.75 60.07L481.21 59.22L482.69 58.49L484.17 57.86L485.67 57.33L487.17 56.91L488.67 56.58L490.17 56.35L491.67 56.22L493.16 56.18L494.63 56.22L496.1 56.36L497.54 56.58L498.97 56.88L500.37 57.26L501.74 57.72L503.08 58.26L504.39 58.87L505.67 59.55L506.9 60.3L508.09 61.11L509.23 61.99L510.33 62.94L511.37 63.94L512.35 64.99L513.28 66.1L514.14 67.27L514.94 68.48L515.66 69.74L516.32 71.05L516.9 72.4L517.4 73.79L517.82 75.22L518.16 76.68L518.4 78.18L518.56 79.71L518.62 81.27L518.58 82.85L518.44 84.46L518.2 86.09L517.85 87.74L497.81 169.59L497.58 170.6L497.41 171.61L497.28 172.62L497.19 173.62L497.16 174.62L497.16 175.61L497.21 176.59L497.3 177.57L497.44 178.53L497.62 179.48L497.83 180.43L498.09 181.35L498.38 182.27L498.71 183.16L499.08 184.05L499.49 184.91L499.93 185.75L500.41 186.58L500.92 187.38L501.46 188.16L502.03 188.92L502.64 189.65L503.28 190.36L503.94 191.04L504.64 191.69L505.36 192.32L506.12 192.91L506.89 193.47L507.7 194L508.52 194.5L509.38 194.96L510.25 195.39L511.15 195.78L512.07 196.13L513.01 196.44L513.97 196.71L514.95 196.94L515.95 197.13L516.97 197.28L518 197.37L602.03 203.61L603.71 203.78L605.33 204.06L606.9 204.42L608.42 204.87L609.89 205.41L611.29 206.03L612.64 206.73L613.93 207.5L615.16 208.34L616.33 209.25L617.43 210.22L618.47 211.24L619.45 212.33L620.35 213.46L621.19 214.64L621.97 215.86L622.67 217.13L623.3 218.43L623.85 219.76L624.34 221.12L624.74 222.5L625.08 223.9L625.33 225.32L625.51 226.76L625.6 228.2L625.61 229.65L625.55 231.1L625.39 232.55L625.16 233.99L624.83 235.42L624.42 236.84L623.92 238.25L623.33 239.63L622.65 240.98L621.88 242.31L621.01 243.61L620.05 244.87L618.99 246.09L617.83 247.26L616.58 248.39L552.26 302.83L551.49 303.51L550.75 304.23L550.05 304.97L549.4 305.73L548.78 306.51L548.2 307.32L547.66 308.14L547.17 308.99L546.71 309.85L546.29 310.72L545.91 311.61L545.57 312.51L545.27 313.42L545.02 314.34L544.8 315.27L544.62 316.21L544.48 317.15L544.38 318.1L544.32 319.05L544.3 320L544.32 320.95L544.38 321.9L544.48 322.85L544.62 323.79L544.8 324.73L545.02 325.66L545.27 326.58L545.57 327.49L545.91 328.39L546.29 329.28L546.71 330.15L547.17 331.01L547.66 331.86L548.2 332.68L548.78 333.49L549.4 334.27L550.05 335.03L550.75 335.77L551.49 336.49L552.26 337.17L616.58 391.61L617.83 392.74L618.99 393.91L620.05 395.13L621.01 396.39L621.88 397.69L622.65 399.02L623.33 400.37L623.92 401.75L624.42 403.16L624.83 404.58L625.16 406.01L625.39 407.45L625.55 408.9L625.62 410.35L625.6 411.8L625.51 413.24L625.33 414.68L625.08 416.1L624.75 417.5L624.34 418.88L623.86 420.24L623.3 421.57L622.67 422.87L621.97 424.14L621.2 425.36L620.36 426.54L619.45 427.67L618.47 428.76L617.43 429.78L616.33 430.75L615.16 431.66L613.93 432.5L612.64 433.27L611.29 433.97L609.89 434.59L608.42 435.13L606.91 435.58L605.33 435.94L603.71 436.22L602.03 436.39L518 442.63L516.97 442.72L515.95 442.87L514.95 443.06L513.97 443.29L513.01 443.56L512.07 443.87L511.15 444.22L510.25 444.61L509.38 445.04L508.53 445.5L507.7 446L506.89 446.53L506.12 447.09L505.37 447.68L504.64 448.31L503.95 448.96L503.28 449.64L502.64 450.35L502.04 451.08L501.46 451.84L500.92 452.62L500.41 453.42L499.93 454.25L499.49 455.09L499.08 455.95L498.72 456.84L498.38 457.73L498.09 458.65L497.83 459.57L497.62 460.52L497.44 461.47L497.31 462.43L497.21 463.41L497.16 464.39L497.16 465.38L497.2 466.38L497.28 467.38L497.41 468.39L497.58 469.4L497.81 470.41L517.85 552.26L518.2 553.91L518.44 555.54L518.58 557.15L518.62 558.73L518.56 560.29L518.4 561.82L518.16 563.32L517.82 564.78L517.4 566.21L516.9 567.6L516.32 568.95L515.67 570.26L514.94 571.52L514.14 572.73L513.28 573.9L512.35 575.01L511.37 576.06L510.33 577.06L509.23 578.01L508.09 578.89L506.9 579.7L505.67 580.45L504.39 581.13L503.09 581.74L501.74 582.28L500.37 582.74L498.97 583.12L497.54 583.42L496.1 583.64L494.63 583.78L493.16 583.82L491.67 583.78L490.17 583.65L488.67 583.42L487.17 583.09L485.67 582.67L484.18 582.14L482.69 581.51L481.21 580.78L479.75 579.94L408.11 535.59L407.21 535.06L406.31 534.58L405.39 534.15L404.46 533.76L403.52 533.41L402.58 533.11L401.63 532.86L400.67 532.64L399.71 532.47L398.75 532.34L397.79 532.26L396.83 532.22L395.87 532.21L394.91 532.25L393.96 532.33L393.01 532.45L392.08 532.61L391.14 532.81L390.22 533.04L389.31 533.32L388.41 533.63L387.53 533.98L386.66 534.37L385.81 534.79L384.97 535.25L384.15 535.75L383.36 536.28L382.58 536.85L381.83 537.45L381.1 538.08L380.4 538.75L379.72 539.45L379.08 540.18L378.46 540.95L377.87 541.75L377.31 542.58L376.79 543.44L376.31 544.33L375.85 545.25L375.44 546.2L343.54 624.19L342.86 625.73L342.1 627.2L341.27 628.58L340.36 629.88L339.4 631.11L338.38 632.25L337.3 633.32L336.17 634.31L334.99 635.22L333.76 636.05L332.5 636.8L331.2 637.47L329.87 638.06L328.51 638.58L327.13 639.01L325.73 639.37L324.31 639.64L322.88 639.84L321.44 639.96L320 640L318.56 639.96L317.12 639.84L315.69 639.64L314.27 639.37L312.87 639.01L311.49 638.58L310.13 638.06L308.8 637.47L307.5 636.8L306.24 636.05L305.02 635.22L303.84 634.31L302.71 633.32L301.63 632.25L300.6 631.11L299.64 629.88L298.74 628.58L297.9 627.2L297.14 625.73L296.46 624.19L264.56 546.2L264.15 545.25L263.7 544.33L263.21 543.44L262.69 542.58L262.13 541.75L261.54 540.95L260.93 540.18L260.28 539.45L259.6 538.75L258.9 538.08L258.17 537.45L257.42 536.85L256.64 536.28L255.85 535.75L255.03 535.25L254.2 534.79L253.34 534.37L252.47 533.98L251.59 533.63L250.69 533.32L249.78 533.04L248.86 532.81L247.93 532.61L246.99 532.45L246.04 532.33L245.09 532.25L244.13 532.21L243.17 532.22L242.21 532.26L241.25 532.35L240.29 532.47L239.33 532.64L238.37 532.86L237.42 533.11L236.48 533.41L235.54 533.76L234.61 534.15L233.7 534.58L232.79 535.06L231.89 535.59L160.25 579.94L158.79 580.78L157.31 581.51L155.83 582.14L154.33 582.67L152.83 583.09L151.33 583.42L149.83 583.65L148.33 583.78L146.84 583.82L145.37 583.78L143.9 583.64L142.46 583.42L141.03 583.12L139.63 582.74L138.26 582.28L136.92 581.74L135.61 581.13L134.33 580.45L133.1 579.7L131.91 578.89L130.77 578.01L129.67 577.06L128.63 576.06L127.65 575.01L126.72 573.9L125.86 572.73L125.06 571.52L124.34 570.26L123.68 568.95L123.1 567.6L122.6 566.21L122.18 564.78L121.84 563.32L121.6 561.82L121.44 560.29L121.38 558.73L121.42 557.15L121.56 555.54L121.8 553.91L122.15 552.26L142.19 470.41L142.42 469.4L142.59 468.39L142.72 467.38L142.81 466.38L142.84 465.38L142.84 464.39L142.79 463.41L142.7 462.43L142.56 461.47L142.38 460.52L142.17 459.57L141.91 458.65L141.62 457.73L141.29 456.84L140.92 455.95L140.51 455.09L140.07 454.25L139.59 453.42L139.08 452.62L138.54 451.84L137.97 451.08L137.36 450.35L136.72 449.64L136.06 448.96L135.36 448.31L134.64 447.68L133.88 447.09L133.11 446.53L132.3 446L131.48 445.5L130.62 445.04L129.75 444.61L128.85 444.22L127.93 443.87L126.99 443.56L126.03 443.29L125.05 443.06L124.05 442.87L123.03 442.72L122 442.63L37.97 436.39L36.29 436.22L34.67 435.94L33.1 435.58L31.58 435.13L30.11 434.59L28.71 433.97L27.36 433.27L26.07 432.5L24.84 431.66L23.67 430.75L22.57 429.78L21.53 428.76L20.55 427.67L19.65 426.54L18.81 425.36L18.03 424.14L17.33 422.87L16.7 421.57L16.15 420.24L15.66 418.88L15.26 417.5L14.92 416.1L14.67 414.68L14.49 413.24L14.4 411.8L14.39 410.35L14.45 408.9L14.61 407.45L14.84 406.01L15.17 404.58L15.58 403.16L16.08 401.75L16.67 400.37L17.35 399.02L18.12 397.69L18.99 396.39L19.95 395.13L21.01 393.91L22.17 392.74L23.42 391.61L87.74 337.18L88.51 336.49L89.25 335.77L89.95 335.03L90.6 334.27L91.22 333.49L91.8 332.68L92.34 331.86L92.83 331.01L93.29 330.15L93.71 329.28L94.09 328.39L94.43 327.49L94.73 326.58L94.98 325.66L95.2 324.73L95.38 323.79L95.52 322.85L95.62 321.9L95.68 320.95L95.7 320L95.68 319.05L95.62 318.1L95.52 317.15L95.38 316.21L95.2 315.27L94.98 314.34L94.73 313.42L94.43 312.51L94.09 311.61L93.71 310.72L93.29 309.85L92.83 308.99L92.34 308.14L91.8 307.32L91.22 306.51L90.6 305.73L89.95 304.97L89.25 304.23L88.51 303.51L87.74 302.83L23.42 248.39L22.17 247.26L21.01 246.09L19.95 244.87L18.99 243.61L18.12 242.31L17.35 240.98L16.67 239.63L16.08 238.25L15.58 236.84L15.17 235.42L14.84 233.99L14.61 232.55L14.45 231.1L14.38 229.65L14.4 228.2L14.49 226.76L14.67 225.32L14.92 223.9L15.25 222.5L15.66 221.12L16.14 219.76L16.7 218.43L17.33 217.13L18.03 215.86L18.8 214.64L19.64 213.46L20.55 212.33L21.53 211.24L22.57 210.22L23.67 209.25L24.84 208.34L26.07 207.5L27.36 206.73L28.71 206.03L30.11 205.41L31.58 204.87L33.09 204.42L34.67 204.06L36.29 203.78L37.97 203.61L122 197.38L123.03 197.28L124.05 197.13L125.05 196.94L126.03 196.71L126.99 196.44L127.93 196.13L128.85 195.78L129.75 195.39L130.62 194.96L131.47 194.5L132.3 194L133.11 193.47L133.88 192.91L134.63 192.32L135.36 191.69L136.05 191.04L136.72 190.36L137.36 189.65L137.96 188.92L138.54 188.16L139.08 187.38L139.59 186.58L140.07 185.75L140.51 184.91L140.92 184.05L141.28 183.16L141.62 182.27L141.91 181.35L142.17 180.43L142.38 179.48L142.56 178.53L142.69 177.57L142.79 176.59L142.84 175.61L142.84 174.62L142.8 173.62L142.72 172.62L142.59 171.61L142.42 170.6L142.19 169.59L122.15 87.74L121.8 86.09L121.56 84.46L121.42 82.85L121.38 81.27L121.44 79.71L121.6 78.18L121.84 76.68L122.18 75.22L122.6 73.79L123.1 72.4L123.68 71.05L124.33 69.74L125.06 68.48L125.86 67.27L126.72 66.1L127.65 64.99L128.63 63.94L129.67 62.94L130.77 61.99L131.91 61.11L133.1 60.3L134.33 59.55L135.61 58.87L136.91 58.26L138.26 57.72L139.63 57.26L141.03 56.88L142.46 56.58L143.9 56.36L145.37 56.22L146.84 56.18L148.33 56.22L149.83 56.35L151.33 56.58L152.83 56.91L154.33 57.33L155.82 57.86L157.31 58.49L158.79 59.22L160.25 60.07L231.89 104.41L232.79 104.94L233.69 105.42L234.61 105.85L235.54 106.24L236.48 106.59L237.42 106.89L238.37 107.14L239.33 107.36L240.29 107.53L241.25 107.66L242.21 107.74L243.17 107.78L244.13 107.79L245.09 107.75L246.04 107.67L246.99 107.55L247.93 107.39L248.86 107.19L249.78 106.96L250.69 106.68L251.59 106.37L252.47 106.02L253.34 105.63L254.19 105.21L255.03 104.75L255.85 104.25L256.64 103.72L257.42 103.15L258.17 102.55L258.9 101.92L259.6 101.25L260.28 100.55L260.92 99.82L261.54 99.05L262.13 98.25L262.69 97.42L263.21 96.56L263.7 95.67L264.15 94.75L264.56 93.8L296.46 15.81L297.14 14.27L297.9 12.8L298.74 11.42L299.64 10.12L300.6 8.89L301.62 7.75L302.7 6.68L303.84 5.69L305.02 4.78L306.24 3.95L307.5 3.2L308.8 2.53L310.13 1.94L311.49 1.42L312.87 0.99L314.27 0.63L315.69 0.36L317.12 0.16L318.56 0.04L320 0L321.44 0.04L322.88 0.16ZM306.08 150.56L299.23 151.26L292.46 152.23L285.78 153.46L279.2 154.95L272.71 156.69L266.32 158.68L260.05 160.91L253.89 163.38L247.85 166.08L241.94 169L236.16 172.15L230.52 175.51L225.02 179.07L219.66 182.84L214.47 186.81L209.43 190.97L204.55 195.32L199.85 199.85L195.32 204.55L190.97 209.43L186.81 214.47L182.84 219.66L179.07 225.02L175.51 230.52L172.15 236.16L169 241.94L166.08 247.85L163.38 253.89L160.91 260.05L158.68 266.32L156.69 272.71L154.95 279.2L153.46 285.78L152.23 292.46L151.26 299.23L150.56 306.08L150.14 313L150 320L150.14 327L150.56 333.92L151.26 340.77L152.23 347.54L153.46 354.22L154.95 360.8L156.69 367.29L158.68 373.68L160.91 379.95L163.38 386.11L166.08 392.15L169 398.06L172.15 403.84L175.51 409.48L179.07 414.98L182.84 420.34L186.81 425.53L190.97 430.57L195.32 435.45L199.85 440.15L204.55 444.68L209.43 449.03L214.47 453.19L219.66 457.16L225.02 460.93L230.52 464.49L236.16 467.85L241.94 471L247.85 473.92L253.89 476.62L260.05 479.09L266.32 481.32L272.71 483.31L279.2 485.05L285.78 486.54L292.46 487.77L299.23 488.74L306.08 489.44L313 489.86L320 490L327 489.86L333.92 489.44L340.77 488.74L347.54 487.77L354.22 486.54L360.8 485.05L367.29 483.31L373.68 481.32L379.95 479.09L386.11 476.62L392.15 473.92L398.06 471L403.84 467.85L409.48 464.49L414.98 460.93L420.33 457.16L425.53 453.19L430.57 449.03L435.45 444.68L440.15 440.15L444.68 435.45L449.03 430.57L453.19 425.53L457.16 420.34L460.93 414.98L464.49 409.48L467.85 403.84L471 398.06L473.92 392.15L476.62 386.11L479.09 379.95L481.32 373.68L483.31 367.29L485.05 360.8L486.54 354.22L487.77 347.54L488.74 340.77L489.44 333.92L489.86 327L490 320L489.86 313L489.44 306.08L488.74 299.23L487.77 292.46L486.54 285.78L485.05 279.2L483.31 272.71L481.32 266.32L479.09 260.05L476.62 253.89L473.92 247.85L471 241.94L467.85 236.16L464.49 230.52L460.93 225.02L457.16 219.66L453.19 214.47L449.03 209.43L444.68 204.55L440.15 199.85L435.45 195.32L430.57 190.97L425.53 186.81L420.33 182.84L414.98 179.07L409.48 175.51L403.84 172.15L398.06 169L392.15 166.08L386.11 163.38L379.95 160.91L373.68 158.68L367.29 156.69L360.8 154.95L354.22 153.46L347.54 152.23L340.77 151.26L333.92 150.56L327 150.14L320 150L313 150.14L306.08 150.56Z" id="bUbunTjAy"></path><path d="M483.3 320C483.3 410.13 410.13 483.3 320 483.3C229.87 483.3 156.7 410.13 156.7 320C156.7 229.87 229.87 156.7 320 156.7C410.13 156.7 483.3 229.87 483.3 320Z" id="b60akeNgA"></path></defs><g><g><g><use xlink:href="#bUbunTjAy" opacity="1" fill="#ffffff" fill-opacity="1"></use><g><use xlink:href="#bUbunTjAy" opacity="1" fill-opacity="0" stroke="#000000" stroke-width="1" stroke-opacity="0"></use></g></g><g><use xlink:href="#b60akeNgA" opacity="1" fill="#ffffff" fill-opacity="1"></use></g></g></g></svg>