<?xml version="1.0" standalone="no"?><!-- Generator: Gravit.io --><svg xmlns="http://www.w3.org/2000/svg" xmlns:xlink="http://www.w3.org/1999/xlink" style="isolation:isolate" viewBox="0 0 640 512" width="640" height="512"><defs><clipPath id="_clipPath_4hY9U18XQ2SBjYgqveKOXcPnm38JHZmE"><rect width="640" height="512"/></clipPath></defs><g clip-path="url(#_clipPath_4hY9U18XQ2SBjYgqveKOXcPnm38JHZmE)"><path d=" M 115.38 136.9 L 217.49 174.08 C 252.68 92.54 303.7 29.79 356.49 0.38 C 260.61 -4.51 167.71 37.34 107.96 112.18 C 101.27 120.58 105.3 133.23 115.38 136.9 L 115.38 136.9 Z  M 247.63 185.06 L 486.11 271.89 C 521.87 150.51 504.81 40.23 443.48 17.91 C 436.08 15.21 428.35 13.91 420.39 13.91 C 362.37 13.92 292.12 83.08 247.63 185.06 L 247.63 185.06 Z  M 521.48 60.5 C 527.7 76.8 532.31 95.1 534.68 115.69 C 540.42 165.58 533.26 223.92 515.73 282.67 L 618.35 320.03 C 628.44 323.7 639.66 316.6 639.92 305.86 C 642.24 210.17 598.01 118.42 521.48 60.5 L 521.48 60.5 Z  M 560 447.98 L 321.06 447.98 L 386 269.5 L 325.86 247.6 L 252.96 447.97 L 16 447.97 C 7.16 447.97 0 455.13 0 463.98 L 0 495.99 C 0 504.83 7.16 512 16 512 L 560 512 C 568.84 512 576 504.83 576 495.99 L 576 463.98 C 576 455.14 568.84 447.98 560 447.98 Z " fill="rgb(255,255,255)"/></g></svg>